<svg xmlns="http://www.w3.org/2000/svg" width="202.691" height="86.002" viewBox="0 0 202.691 86.002"><g transform="translate(0 13.404)"><path d="M50.525,8.284s-1.747,2.524-2.718,3.883c0,0-2.912,4.853-3.883,7.183,0,0-2.524,5.63-3.106,6.6,0,0-3.3,5.436-4.271,7.571,0,0-2.912,4.659-3.689,5.824a1.2,1.2,0,0,0-.194,1.359,2.008,2.008,0,0,1,.194.777s.582.777,1.553-.582c0,0,4.853-6.018,6.6-9.513a76.233,76.233,0,0,0,4.659-8.348s2.718-6.018,4.465-8.93c0,0,1.553-3.106,1.359-.971a18.252,18.252,0,0,1-.194,2.33c-.194,2.135-.777,5.824-1.747,13.007,0,0-1.553,9.513-2.33,13.589,0,0-1.941,11.648-2.135,13.589,0,0-.582,2.33.388,2.524,0,0,1.941.582,2.135-.388,0,0,.777-3.3,1.165-4.465,0,0,2.524-13.007,2.912-15.919,0,0,3.494-17.86,3.494-22.326,0,0,.388-3.883-.388-5.242a8.807,8.807,0,0,0-.971-1.747s-.194-.582-1.359-.582A2.294,2.294,0,0,0,50.525,8.284Z" transform="translate(30.623 -6.352)" fill="#fff"/><path d="M183.274,19.126c-.194,0-.388,0-.388-.194.388-.388-.582-.194-1.165-.194h-6.6c-1.165,0-2.718.194-4.077.194h-1.553c-6.406.194-14.366,1.165-14.366,1.165-6.989.971-15.919,3.106-15.919,3.106a14.264,14.264,0,0,0-1.553.388c-.194-1.165-.971-5.242-.971-5.242-.194-1.359-.777-3.689-.971-4.659a2.008,2.008,0,0,0-.194-.777,2.818,2.818,0,0,0-.194-1.165c-.388-.777-1.941-.777-1.941-.777-.777,0-1.165,1.553-1.165,1.553-.388,1.553-3.883,8.154-3.883,8.154-1.165,2.718-4.659,5.824-4.659,5.824a10.219,10.219,0,0,1-3.689,2.524c-.971.194,0-.582,0-.582a19.538,19.538,0,0,0,3.3-5.242c1.359-3.494-.971-4.853-.971-4.853-2.524-1.165-5.436,1.941-5.436,1.941a8.84,8.84,0,0,0-2.718,8.154v.388a59.3,59.3,0,0,1-6.018,2.524.6.6,0,0,1-.777-.388,4.872,4.872,0,0,1-.582-2.912c0-.582.194-1.359.194-1.553v-.194c1.747-1.553,7.765-7.96,7.765-7.96A61.128,61.128,0,0,1,120.18,13.5a17.047,17.047,0,0,0,1.553-1.359,2.953,2.953,0,0,0,.777-1.165,2.67,2.67,0,0,0,0-2.33,5.977,5.977,0,0,0-1.165-1.165c-1.747-1.165-4.077-.194-4.077-.194-7.183,3.106-11.842,11.26-11.842,11.26a18.217,18.217,0,0,0-1.553,7.377v.194c-.971.971-3.494,4.271-3.494,4.271a1.254,1.254,0,0,1-.971.582,3.949,3.949,0,0,1-.971-.194,14.621,14.621,0,0,0-5.048.194c-1.165.582-1.359.388-1.359.388-.194-.388.971-.777.971-.777,1.165-.582,5.048-2.33,5.048-2.33a6.279,6.279,0,0,1,1.747-.388h1.359c.777-.388.388-1.553.388-1.553a1.379,1.379,0,0,0-1.165-.777,17.273,17.273,0,0,0-9.9,3.494c-.388.388-.582.388-.582.388a1.956,1.956,0,0,1-.582-.194c-.777-.194-.971,0-.971,0-.582.388-1.553,1.165-1.553,1.165-.777.582-.777-.194-.777-.194,0-.582-.194-2.718-.194-2.718a2.008,2.008,0,0,0-.194-.777,8.162,8.162,0,0,0-.388-.971,7.588,7.588,0,0,0-.971-.777,1.727,1.727,0,0,0-1.553,0,11.727,11.727,0,0,0-3.106,2.135c-.777.582-.777,0-.777,0,0-.194.777-.971.777-.971.582-.582,0-1.553,0-1.553a1.938,1.938,0,0,0-.971-.777,1.875,1.875,0,0,0-1.553,0c-1.553.582-8.348,2.524-8.348,2.524A120.382,120.382,0,0,0,47.38,34.851C42.915,36.986,21.754,45.14,21.754,45.14c-1.747.582-.971,1.941-.971,1.941a1.651,1.651,0,0,0,2.135.971A212.528,212.528,0,0,0,46.8,38.54c2.912-1.747,14.948-6.795,14.948-6.795,2.524-1.165,12.425-4.077,12.425-4.077.777-.194.582.194.582.194a2.793,2.793,0,0,0-.388.582c-1.553,1.747-4.077,5.436-4.077,5.436a3.7,3.7,0,0,0-.582,1.941c-.194,1.747.971,1.747.971,1.747,2.135.388,4.271-1.553,4.271-1.553,1.165-.777,7.571-6.6,7.571-6.6.777-.777.582-.194.582-.194v3.3a2.253,2.253,0,0,0,1.165,1.941,6.1,6.1,0,0,0,2.524.194c.971,0,.971-1.165.971-1.165.582-.194.777.194.777.194.777.971,1.359.971,1.359.971a9.85,9.85,0,0,0,4.077-.777,21.149,21.149,0,0,1,3.883-.388c.971-.194.582.194.582.194-1.747,1.941-6.018,7.96-6.018,7.96a20.669,20.669,0,0,0-3.883,7.96,7.335,7.335,0,0,0,0,2.912,2.256,2.256,0,0,0,1.747,1.747,6.582,6.582,0,0,0,3.883-.194c5.242-1.941,9.318-7.183,9.318-7.183,2.33-2.912,2.524-7.571,2.524-7.571.194-4.853-2.33-6.795-2.33-6.795a.959.959,0,0,1-.194-.582A22.3,22.3,0,0,1,105.038,30c.388-.388.582-.194.582-.194a13.479,13.479,0,0,0,1.747,2.912c1.553,2.135,2.912,1.359,2.912,1.359l2.912-1.165c1.165-.388,4.271-1.747,4.271-1.747l.777.388a11.91,11.91,0,0,0,4.077.388,7.1,7.1,0,0,0,3.3-1.941c.582-.388.777-.194.777-.194.388.777,2.135,1.553,2.135,1.553,2.135.971,5.824.582,5.824.582,3.106-.582,3.883-1.941,3.883-1.941.971-.971.777-3.883.777-3.883l.777-.194c4.271-1.359,14.366-3.3,14.366-3.3a119.716,119.716,0,0,1,12.619-1.553c3.106-.194,8.154-.388,8.154-.388h5.436a.678.678,0,0,0,.388-.194h.777c.194,0,.194-.194.388-.194h.971c0-.194-.194-.194-.194-.388C181.721,19.32,183.468,19.514,183.274,19.126Zm-75.713,1.941a2.84,2.84,0,0,1,.582-.971s1.941-3.883,7.377-8.542a2.736,2.736,0,0,1,.971-.582c.388-.194.582-.194.777-.388a1.5,1.5,0,0,1,.582-.194.678.678,0,0,0,.388-.194c.194,0,.388-.194.582-.194,0,0,.582-.194.388.194,0,0,0,.194-.582.582,0,0-5.436,5.242-6.018,6.018,0,0-4.077,4.271-4.659,5.048C108.144,21.65,106.979,22.815,107.562,21.067ZM101.543,39.51A15.32,15.32,0,0,1,98.049,46.5s-.971,1.553-4.853,4.271a3.06,3.06,0,0,1-2.718.388s-.582-.194,0-1.941a12.661,12.661,0,0,1,1.747-3.689,48.23,48.23,0,0,1,3.3-4.853s3.106-4.077,3.689-5.048a7.74,7.74,0,0,1,.582-.777s.582-.777.777-.194C100.767,34.657,101.932,36.6,101.543,39.51Zm17.472-15.143a21.288,21.288,0,0,1-1.553,1.941s-.582.388-.388-.582a6.01,6.01,0,0,1,.777-2.33,6.336,6.336,0,0,1,1.553-2.135,7.74,7.74,0,0,0,.777-.582s.388-.194.388.388A21.768,21.768,0,0,1,119.016,24.368Zm9.124,1.747s-.194-.194.388-.777c0,0,3.106-3.689,4.077-6.989a9.139,9.139,0,0,1,.388-.971s.388-.582.582.194a31.969,31.969,0,0,0,.777,3.3s.582,2.33.582,2.718a.425.425,0,0,1-.194.582,51.171,51.171,0,0,0-6.018,1.941S128.14,26.309,128.14,26.115Zm6.406,1.553a5.545,5.545,0,0,1-2.718,1.165,4.955,4.955,0,0,1-1.747,0s-.388-.194.194-.388l4.077-1.165a1.956,1.956,0,0,1,.582-.194C135.129,26.891,135.129,27.28,134.546,27.668Z" transform="translate(19.403 -6.905)" fill="#fff"/><path d="M3.689,39.837s4.077.971,11.454,0c0,0,15.531-1.747,26.6-5.048,0,0,16.113-5.048,19.219-8.736,0,0,1.941-1.747,1.359-3.689,0,0-.194-3.106-8.93-3.494a33.149,33.149,0,0,0-12.036,1.747s-9.9,3.494-11.842,4.465c0,0-1.747.777-2.33-.194a1.651,1.651,0,0,1,.971-2.135s7.765-2.718,10.1-3.883c0,0,7.183-3.3,8.93-4.465,0,0,1.553-.971-.194-.971a30.154,30.154,0,0,0-8.93,1.941s-5.436,1.747-8.154,2.912c0,0-2.524,1.165-3.494,1.553a1.833,1.833,0,0,1-1.941-.582,1.275,1.275,0,0,1,.582-1.747,109.424,109.424,0,0,1,17.472-5.63,20.975,20.975,0,0,1,8.736-.194s1.359.388,1.553,1.165c0,0,.388.971-1.747,2.524a14.3,14.3,0,0,0-1.165.971s4.853.194,6.212.388c0,0,7.571.971,9.124,4.659,0,0,1.747,4.077-1.941,6.406,0,0-9.9,7.765-30.867,11.454a171.653,171.653,0,0,1-19.8,2.718s-5.63.582-9.318-.582a4.866,4.866,0,0,1-1.359-.777,3.129,3.129,0,0,1-.777-1.359C0,39.06,0,38.866,0,38.672V38.09C0,37.9.194,37.9.388,37.9c.194-.194,0-.582.194-.777h0v-.194c.194,0,.194.194.388.194,0-.194.194-.582.194-.777.194-.194.194-.388.388-.582a.19.19,0,0,0,.194.194.19.19,0,0,1,.194-.194.19.19,0,0,0,.194.194v2.33S1.941,39.449,3.689,39.837Z" transform="translate(0 -2.766)" fill="#fff"/><g transform="translate(29.703 2.126)"><g transform="translate(0 10.872)"><g opacity="0.85"><path d="M15.6,14.9Z" transform="translate(-15.018 -12.376)" fill="#fff"/><path d="M15.6,14.9Z" transform="translate(-15.018 -12.376)" fill="#fff"/><path d="M15.7,14.8Z" transform="translate(-14.923 -12.47)" fill="#fff"/><path d="M15.6,14.8Z" transform="translate(-15.018 -12.47)" fill="#fff"/><path d="M15.6,14.8Z" transform="translate(-15.018 -12.47)" fill="#fff"/><path d="M15.694,14.936h0c.194-.194.194,0,.194-.194,0,0,.194-.194.194,0a.678.678,0,0,1-.388.194h0l-.194.194.194-.194Z" transform="translate(-15.112 -12.606)" fill="#fff"/><path d="M15.3,15.071Z" transform="translate(-15.3 -12.353)" fill="#fff"/><path d="M15.3,15Z" transform="translate(-15.3 -12.282)" fill="#fff"/><path d="M15.842,15.93c.194,0,.194-.194.388-.194h.582c.388-.194.971-.388,1.359-.582.194,0,.388-.194.777-.388a5.05,5.05,0,0,0,1.359-.582,1.472,1.472,0,0,0,.777-.388l.194-.194h0c-.194,0-.194.194-.582.194.194,0-.194.194-.388.194a.678.678,0,0,0-.388.194c-.194,0-.388.194-.582.194s-.194,0-.194.194a5.812,5.812,0,0,0-1.553.777c-.194,0-.194.194-.388.194a.19.19,0,0,0-.194.194c-.194,0-.194.194-.388.194a.678.678,0,0,1,.388-.194h-.194a.19.19,0,0,0-.194.194h-.194c-.388-.194-.388-.194-.582,0l.194-.194h0a.19.19,0,0,0-.194.194Z" transform="translate(-14.871 -13.6)" fill="#fff"/><path d="M16.1,14.6Z" transform="translate(-14.547 -12.659)" fill="#fff"/></g></g><g transform="translate(75.518 17.666)"><g opacity="0.85"><path d="M54.3,18.2Z" transform="translate(-54.106 -16.065)" fill="#fff"/><path d="M54.3,18.2Z" transform="translate(-54.106 -16.065)" fill="#fff"/><path d="M54.3,18.2Z" transform="translate(-54.106 -16.065)" fill="#fff"/><path d="M54.3,18.2Z" transform="translate(-54.106 -16.065)" fill="#fff"/><path d="M54.3,18.2Z" transform="translate(-54.106 -16.065)" fill="#fff"/><path d="M54.2,18.271Z" transform="translate(-54.2 -16.135)" fill="#fff"/><path d="M54.3,18.3Z" transform="translate(-54.106 -15.97)" fill="#fff"/><path d="M54.3,18.4Z" transform="translate(-54.106 -15.876)" fill="#fff"/><path d="M54.394,19.041v-.194h0v-.971c0-.194-.194-.388-.194-.582V17.1h0v.194c0,.194.194.194.194.388v.194a1.468,1.468,0,0,0,.194.777v.388h-.194Z" transform="translate(-54.2 -17.1)" fill="#fff"/><path d="M54.2,18Z" transform="translate(-54.2 -16.253)" fill="#fff"/></g></g><g transform="translate(50.863 23.296)"><g opacity="0.8"><path d="M44.606,20.388c0,.582-.194.971-.194,1.553a8.256,8.256,0,0,0-.388,2.135c0,.388-.194.777-.194,1.165-.194.777-.194,1.553-.388,2.524v.388a5.989,5.989,0,0,0-.194,1.747h-.194V30.1h.194v.582a8.408,8.408,0,0,1-.194.971,5.668,5.668,0,0,1-.388,1.747v.388c-.194.777-.194,1.553-.388,2.135,0,.388,0,.582-.194.777v.194a1.935,1.935,0,0,1-.194.777v.388h0V37.86a1.167,1.167,0,0,1,.194-.777c0-.388,0-.582.194-.777v-.388l-.194,1.553c.194-1.359.388-2.135.388-2.718s.194-.582,0-.582c0,.194-.194,1.165-.388,2.135a3.416,3.416,0,0,1-.194,1.165V36.5a3.79,3.79,0,0,1,.194-1.359c.194-.582.194-1.747.388-2.135a3.79,3.79,0,0,1-.194,1.359c.194-.777.194-.971.388-1.941v-.582a8.408,8.408,0,0,1,.194-.971V29.9h.194c.194,0,0,0,0,.194h-.194c-.194.582-.194,1.165-.388,1.747v.388c0,.194-.194.582-.194.777,0-.582.194-1.165.194-1.747v-.388a1.167,1.167,0,0,1-.194.777c-.194.777-.388,2.135-.582,2.718h0c0,.194,0,.194-.194.388v-.388l.582-2.912c0-.194.194-.582.194-.777v-.971h.194l.194.194h-.388a2.111,2.111,0,0,1,.194-.971c.388-2.33.777-4.659,1.359-6.795v-.194h0v-.194a1.468,1.468,0,0,1,.194-.777v.194h0v-.194a6.9,6.9,0,0,1-.388,1.941v-.388a.713.713,0,0,1,.194-.582,1.766,1.766,0,0,0,.777-1.553h0v-.194h-.194l.194.194h0L44.412,20h.194v.388Zm-1.359,7.96a.713.713,0,0,1,.194-.582v-.388c0-.388.194-.582.194-.971,0,.388-.194.777-.194,1.165.194-1.165.388-1.941.582-3.106,0-.388.194-.582.194-.971a.713.713,0,0,1,.194-.582c-.388,2.33-.971,4.659-1.359,6.989h.194v.388a.713.713,0,0,1-.194.582.713.713,0,0,1,.194-.582V29.9h0A2.144,2.144,0,0,1,43.247,28.348Zm0,.388a8.408,8.408,0,0,1-.194.971V29.9h0v.582a.713.713,0,0,1-.194.582,3.416,3.416,0,0,1-.194,1.165c0-.388.194-.777.194-1.165a.713.713,0,0,1,.194-.582V29.9h0v0h0a3.415,3.415,0,0,1,.194-1.165Z" transform="translate(-41.5 -20)" fill="#fff"/><path d="M43.365,22.365c0-.388.194-.777.194-1.165,0,.194,0,.194-.194.388-.194.388-.194.971-.388,1.553a30.515,30.515,0,0,0-.777,4.465v.388C42.588,26.053,42.977,24.112,43.365,22.365Z" transform="translate(-40.841 -18.87)" fill="#fff"/><path d="M42.094,26.465c0,.388,0,.582-.194.777.194-.194.194-.388.194-.777s.194-.777.194-1.165C42.288,25.688,42.094,26.077,42.094,26.465Z" transform="translate(-41.123 -15.011)" fill="#fff"/><path d="M42.394,24.7v.777h.388l-.388-.194H42.2v0h.194l.194.194H42.2a1.468,1.468,0,0,1,.194-.777Z" transform="translate(-40.841 -15.576)" fill="#fff"/></g></g><g transform="translate(25.238 22.52)"><g opacity="0.8"><path d="M28.3,25.036h0a2.792,2.792,0,0,0,.582-.388c.194-.194.582-.194.777-.388.194,0,.194-.194.388-.194a.6.6,0,0,0-.388.194c-.194,0-.194.194-.388.194.194,0,.388-.194.582-.194s.194,0,.388-.194a11.136,11.136,0,0,0,1.359-.777c.194,0,.388-.194.582-.388l-1.941,1.165h0l.971-.582h0a.678.678,0,0,0-.388.194.678.678,0,0,1-.388.194.19.19,0,0,0-.194.194h-.194c.194,0,1.553-.777,1.747-.777.194-.194.388-.194.582-.388h.194c.194,0,.194-.194.388-.194,0,0,.388,0,.388-.194l.194-.194h.194c.194,0,.194-.194.388-.194.194-.194.194-.194.388-.194l.388-.194c.194-.194.388-.194.582-.388a2.68,2.68,0,0,1,.777-.582c.194-.194.388-.194.582-.388l.194-.194a.19.19,0,0,1,.194-.194h0l.194-.194.194-.194h-.194l-.582.582a.19.19,0,0,1-.194.194h0c-.777,0-1.165.194-1.165.388a.19.19,0,0,0-.194.194c-.194.194-.388.194-.582.388s-.194.194-.388.194h-.194A13.058,13.058,0,0,0,31.989,22.9c-.777.582-1.747.971-2.33,1.359a3.28,3.28,0,0,1-.971.388l-.388.388Z" transform="translate(-28.3 -19.6)" fill="#fff"/></g></g><g transform="translate(33.974 20.298)"><g transform="translate(0)" opacity="0.85"><path d="M32.9,19.5Z" transform="translate(-32.706 -17.472)" fill="#fff"/><path d="M32.9,19.5Z" transform="translate(-32.706 -17.472)" fill="#fff"/><path d="M32.9,19.4Z" transform="translate(-32.706 -17.566)" fill="#fff"/><path d="M32.9,19.5Z" transform="translate(-32.706 -17.472)" fill="#fff"/><path d="M32.9,19.5Z" transform="translate(-32.706 -17.472)" fill="#fff"/><path d="M32.9,19.4Z" transform="translate(-32.706 -17.566)" fill="#fff"/><path d="M32.8,19.671Z" transform="translate(-32.8 -17.449)" fill="#fff"/><path d="M32.8,19.6Z" transform="translate(-32.8 -17.378)" fill="#fff"/><path d="M32.9,20.289h0l.194-.194-.194.194h0l.194-.194h0a.678.678,0,0,1,.194-.388.19.19,0,0,1,.194-.194v-.777h0c-.194,0,0,0,0-.194s-.194,0-.194,0v.777h0c0,.194-.194.388-.194.582v.194h0v0h0l-.194.194c0-.194.194-.194,0,0Z" transform="translate(-32.706 -18.456)" fill="#fff"/><path d="M33,19.3Z" transform="translate(-32.612 -17.661)" fill="#fff"/></g></g><g transform="translate(124.246 20.578)"><g opacity="0.8"><path d="M79.3,21.124a1.956,1.956,0,0,0,.582-.194h.194c.194,0,.194-.194.582-.194l.194-.194a.678.678,0,0,1-.388.194.6.6,0,0,1-.388.194h0l.388-.194h0a.19.19,0,0,0-.194.194h-.388a4.4,4.4,0,0,1,.777-.194l.194-.194h0a.19.19,0,0,0,.194-.194h.194l.194-.194a.19.19,0,0,0,.194-.194v-.194a.19.19,0,0,1,.194-.194c0-.194.194-.194.194-.388s0-.194.194-.194h0V18.6h-.194v.194h0s-.194.194,0,.194v.194a.19.19,0,0,1-.194.194v.194h0c-.194.194-.582.388-.777.777-.777.388-1.553.582-1.747.777Z" transform="translate(-79.3 -18.6)" fill="#fff"/></g></g><g transform="translate(109.018 0.194)"><g opacity="0.8"><path d="M71.542,13.342l.388-.388c.194,0,.388-.388.582-.582s.194-.194.388-.194l.582-.582h0a2.68,2.68,0,0,0,.582-.777c0-.194.194-.194.194-.388s.194-.388.194-.582V9.653a1.167,1.167,0,0,0,.194-.777V8.682h0v.777a2.008,2.008,0,0,0,.194-.777v.388c0,.194-.194.582-.194.777a.678.678,0,0,1,.194-.388c-.194.388,0,.388-.194.582h0v.194c-.194.194-.194.388-.388.582h0c0,.194.194,0,.194-.194V10.43a.19.19,0,0,1,.194-.194c0,.194-.194.388-.194.582v.194c0-.194,0-.194.194-.194a3.28,3.28,0,0,0,.388-.971h0v0c0,.388-.194.582-.388.971l-.194.194c-.194.194-.194.388-.388.582a7.6,7.6,0,0,1-1.941,1.553h0l-.194.194h0c.194-.194.388-.388.582-.388h-.194l-.194.194a1.955,1.955,0,0,0-.582.194h0C71.348,13.536,71.542,13.536,71.542,13.342Zm2.135-1.747h0l-.194.194h0l-.194.194c.194,0,.194-.194.388-.194l-.777.777a.19.19,0,0,0-.194.194l-.194.194c.388-.388.777-.582,1.165-.971s.777-.582.971-1.165A3.408,3.408,0,0,1,73.677,11.594Zm.194,0a.678.678,0,0,0,.194-.388,1.472,1.472,0,0,0,.388-.777c-.194.194-.194.582-.388.777.194-.194,0,0-.194.388Z" transform="translate(-71.456 -8.1)" fill="#fff"/><path d="M72.088,11.253c-.194,0-.194.194-.388.194h.194c.194-.194.388-.194.388-.388l1.165-1.165V9.7A2.693,2.693,0,0,1,72.088,11.253Z" transform="translate(-71.225 -6.594)" fill="#fff"/><path d="M73.094,9.494a.19.19,0,0,1,.194-.194l-.194.194c0,.194-.194.194-.194.388A.678.678,0,0,0,73.094,9.494Z" transform="translate(-70.096 -6.97)" fill="#fff"/><path d="M72.7,9.988h0l.388-.388c0,.194-.194.194-.388.388Z" transform="translate(-70.284 -6.688)" fill="#fff"/></g></g><g transform="translate(53.97)"><g opacity="0.85"><path d="M43.8,16.1Z" transform="translate(-42.441 -0.375)" fill="#fff"/><path d="M43.9,16.042Z" transform="translate(-42.347 -0.511)" fill="#fff"/><path d="M43.9,15.8Z" transform="translate(-42.347 -0.657)" fill="#fff"/><path d="M43.9,15.9Z" transform="translate(-42.347 -0.563)" fill="#fff"/><path d="M43.9,15.9Z" transform="translate(-42.347 -0.563)" fill="#fff"/><path d="M43.8,16.49h0V15.326a1.238,1.238,0,0,1,0,1.165c.194-.194.194,0,0,0h0v0Z" transform="translate(-42.441 -1.154)" fill="#fff"/><path d="M43.7,17.082h0V16.5h0v.582Z" transform="translate(-42.535 0.001)" fill="#fff"/><path d="M43.7,16.9Z" transform="translate(-42.535 0.378)" fill="#fff"/><path d="M44.653,22.56c0-.194.194-.388.194-.582h0V21.4h0V21.2h0v0h0v-.388h0v-.194h0v-.582h0v0h0v-.388a21.5,21.5,0,0,0,.388-3.689V13.824a9.027,9.027,0,0,0-.582-3.883,5.508,5.508,0,0,0-1.165-1.747A.6.6,0,0,0,43.1,8v.194a7.391,7.391,0,0,1,.971,1.165c-.194-.582.194.388.388.777,0,.388.194.777.194,1.359v4.659c0,.777-.194,1.359-.194,2.135a2.885,2.885,0,0,1-.194,1.165V21.2h0v.971h0v0h0c.388-.194.388.194.388.388h0v-.388h0s.194,0,0,.388h0v0Z" transform="translate(-43.1 -8)" fill="#fff"/><path d="M44.1,14.694h0v0Z" transform="translate(-42.159 -1.881)" fill="#fff"/></g></g><g transform="translate(82.119 27.567)"><g opacity="0.85"><path d="M62.2,23Z" transform="translate(-53.27 -21.447)" fill="#fff"/><path d="M62.2,23.2Z" transform="translate(-53.27 -21.259)" fill="#fff"/><path d="M62.2,23.3Z" transform="translate(-53.27 -21.165)" fill="#fff"/><path d="M62.2,23.2Z" transform="translate(-53.27 -21.259)" fill="#fff"/><path d="M62.2,23.2Z" transform="translate(-53.27 -21.259)" fill="#fff"/><path d="M62.371,23.577h0v1.165a1.222,1.222,0,0,1,0-1.165v-.582C62.176,23.382,62.176,23.382,62.371,23.577Z" transform="translate(-53.246 -21.635)" fill="#fff"/><path d="M62.1,22.3h0v.582h0c.194-.388.194-.388,0-.582Z" transform="translate(-53.364 -22.106)" fill="#fff"/><path d="M62.1,22.2Z" transform="translate(-53.364 -22.2)" fill="#fff"/><path d="M66.336,23.694a2.462,2.462,0,0,1-.194,1.165h0v.194h0v0h0c0,.194,0,.194-.194.388h0v.194h0a.19.19,0,0,1-.194.194v.194h0v.194a.19.19,0,0,1-.194.194c0-.194,0-.194.194-.194v-.194h0V25.83c0,.194-.194.388-.194.582a10.429,10.429,0,0,1-1.941,3.106c-.388.582-.971.971-1.359,1.553A8.969,8.969,0,0,0,60.9,32.43,10.769,10.769,0,0,1,59.347,33.6a.19.19,0,0,0-.194.194h0a5.9,5.9,0,0,1-1.359.971h0l-.194.194h.194v.194h0c.194,0,.194,0,.388-.194h0a4.244,4.244,0,0,1,.971-.582c-.388.194,0,0,.388-.388h0c.194-.194.194-.194.388-.194a4.061,4.061,0,0,0,1.165-.777,5.147,5.147,0,0,1,1.165-.971l.582-.582c.388-.582.971-.971,1.359-1.553l1.165-1.747a3.28,3.28,0,0,0,.388-.971c0-.194.194-.388.388-.582a.678.678,0,0,1,.194-.388V25.83c0,.194,0,.194-.194.388v.388h0V25.83h0c0-.194,0-.388.194-.388v-.582h0v0h0c.194-.777.194-.971,0-1.165h0v.388h0v-.388h0V23.5C66.53,23.5,66.336,23.694,66.336,23.694Z" transform="translate(-57.6 -20.976)" fill="#fff"/><path d="M62,24.5h0v0Z" transform="translate(-53.458 -20.035)" fill="#fff"/></g></g></g><g transform="translate(130.265 30.082)"><path d="M74.089,25.894h0v3.494h-.582l-.194.194h-.388l-.194.194H69.236l-.388-.194h-.777l-.194-.194h-.388l-.194-.194H67.1l.776.194-.194-.194L67.488,29l-.194-.194v-.194l-.194-.388V25.7h0V23.953l.194-.194v-.194l.194-.194.194-.194.194-.194.194-.194.194-.194h.388l.388-.194h3.883l.388.194h.971v.194l-.194.194-.388.388-.194.194L72.73,24.73H69.818l-.388.194h-.194l-.194.194-.194.194-.194.194v2.718l.194.194v.194l.194.194.194.194.194.194.194.194.194.194h1.553l.582-.194h.582v-.194h0v-.777H70.789v-.194h0V26.865h3.3v-.971Z" transform="translate(-67.1 -22.4)" fill="#fff"/><path d="M78.1,30.071H75.965l-.388-.388v-.194l-.388-.388v-.194l-.388-.388v-.194l-.388-.388h-.777V30.46H71.5V22.694h0V22.5h5.63l.194.194h.194l.194.194.194.194.194.194v.194l.194.194v3.3l-.194.194h-.194l-.194.194H76.353l.388.582v.194l.388.582.194.194.388.582.194.194.388.388v.194l-.194-.194Zm-3.106-4.077h.582l.194-.194V24.247h-2.33v1.747h1.553Z" transform="translate(-62.958 -22.306)" fill="#fff"/><path d="M83.354,26.094h0v1.747l-.194.194v.194l-.194.388v.194h-.388l-.194.194-.194.194h0l-.194.194H81.8l-.194.194h-.971v.388H77.918l-.582-.194h-.388l-.388-.194h-.388l-.194-.194.388-.194-.194-.194-.194-.194-.194-.194-.194-.194-.194-.194v-.388l-.194-.388V23.959h0v-.194l.194-.194.194-.194h0l.194-.194.194-.194.194-.194h.194l.388-.194h5.242l.388.194h.194l.194.194.194.194.194.194.194.194v.194l.194.194v.582l.194.194v1.553ZM80.83,27.453h0l.194-.388V25.124l-.194-.194v-.194l-.194-.194v.194l-.194-.194h-.194l-.194-.194H78.112l-.194.194h-.194l-.194.194-.194.194-.194.194v.194h0v.388h0v1.359h0v.194h0v.194h0v.194h0l.194.194h0l.194.194.194.194h2.135l.194-.194h.194l.194-.194.388-.388Z" transform="translate(-59.475 -22.212)" fill="#fff"/><path d="M86.8,26.383v2.524l-.194.194-.194.194h-.388l-.194.194-.194.194h-.194l-.194.194h-.194l-.194.194h-3.3l-.194-.194h-.194l-.194-.194-.194-.194-.194-.194-.194-.194v-.194l-.194-.194V22.5h2.135v5.048l.194.194.194.194.194.194h1.747l.194-.194.194-.194.194-.194V22.5h2.135v3.3Z" transform="translate(-54.768 -22.306)" fill="#fff"/><path d="M90.995,25.124h0v1.359l-.194.194v.194l-.194.194-.194.194h-.777v.388h-3.3v2.135H84.2V22.794h0V22.6h5.824l.194.194.194.194.194.194h0l.194.194.194.194h0v.194h0v.582h0v.194h0v.582Zm-3.106.971h.582l.194-.194h0v-.194h0v-.194h0v-.388h0V24.93h0l-.194-.194H86.53v1.747h.777Z" transform="translate(-51.003 -22.212)" fill="#fff"/></g></g><g transform="translate(8.542)"><path d="M4.4,3.789h0A3.57,3.57,0,0,1,8.089.1a3.023,3.023,0,0,1,2.718,1.165l-.777.971a2.7,2.7,0,0,0-1.941-.971A2.57,2.57,0,0,0,5.565,3.789h0a2.407,2.407,0,0,0,2.33,2.524,3.117,3.117,0,0,0,2.135-.971l.777.777A3.065,3.065,0,0,1,7.894,7.477,3.528,3.528,0,0,1,4.4,3.789Z" transform="translate(-4.4 0.094)" fill="#fff"/><path d="M8.3,1.194H9.659V2.359A2.111,2.111,0,0,1,11.6,1V2.359h0A1.893,1.893,0,0,0,9.659,4.494V6.63H8.3Z" transform="translate(-0.729 0.941)" fill="#fff"/><path d="M10.3,3.912h0A2.821,2.821,0,0,1,13.018,1a2.669,2.669,0,0,1,2.524,2.912V4.3H11.659a1.478,1.478,0,0,0,1.553,1.359,2.582,2.582,0,0,0,1.553-.582l.777.582a2.781,2.781,0,0,1-2.135.971C11.465,6.63,10.3,5.465,10.3,3.912Zm3.883-.388a1.359,1.359,0,0,0-2.718,0Z" transform="translate(1.154 0.941)" fill="#fff"/><path d="M17.089,6.63V5.853a2.461,2.461,0,0,1-1.747.777A1.785,1.785,0,0,1,13.4,4.883h0c0-1.165.971-1.747,2.135-1.747a3.785,3.785,0,0,1,1.553.194h0c0-.777-.388-1.165-1.359-1.165a4.569,4.569,0,0,0-1.553.388l-.388-.971A4.425,4.425,0,0,1,15.924,1a2.3,2.3,0,0,1,2.524,2.33v3.3Zm0-2.33a2.462,2.462,0,0,0-1.165-.194c-.777,0-1.165.388-1.165.777h0c0,.582.388.777.971.777.777,0,1.359-.388,1.359-1.165Z" transform="translate(4.072 0.941)" fill="#fff"/><path d="M17.177,5.736V2.824H16.4V1.853h.777V.3h1.165V1.853h1.553v.971H18.341V5.542a.515.515,0,0,0,.582.582A1.167,1.167,0,0,0,19.7,5.93V6.9a2.1,2.1,0,0,1-1.165.194C17.759,7.289,17.177,6.9,17.177,5.736Z" transform="translate(6.896 0.282)" fill="#fff"/><path d="M18.6,3.912h0A2.821,2.821,0,0,1,21.318,1c1.747,0,2.524,1.359,2.524,2.912V4.3H19.959a1.478,1.478,0,0,0,1.553,1.359,2.582,2.582,0,0,0,1.553-.582l.777.582a2.781,2.781,0,0,1-2.135.971C19.765,6.63,18.6,5.465,18.6,3.912Zm4.077-.388a1.359,1.359,0,0,0-2.718,0Z" transform="translate(8.967 0.941)" fill="#fff"/><path d="M21.8,4.853h0a2.676,2.676,0,0,1,2.524-2.912,2.142,2.142,0,0,1,1.941.971V0H27.43V7.571H26.265V6.6a2.142,2.142,0,0,1-1.941.971A2.5,2.5,0,0,1,21.8,4.853Zm4.465,0h0a1.712,1.712,0,0,0-1.553-1.747,1.587,1.587,0,0,0-1.553,1.747h0A1.712,1.712,0,0,0,24.712,6.6,1.712,1.712,0,0,0,26.265,4.853Z" transform="translate(11.979)" fill="#fff"/><path d="M28.265,6.6v.777H27.1V0h1.165V2.912a2.142,2.142,0,0,1,1.941-.971A2.674,2.674,0,0,1,32.73,4.853h0a2.5,2.5,0,0,1-2.524,2.718A2.142,2.142,0,0,1,28.265,6.6Zm3.106-1.747h0a1.712,1.712,0,0,0-1.553-1.747,1.712,1.712,0,0,0-1.553,1.747h0A1.712,1.712,0,0,0,29.818,6.6,1.712,1.712,0,0,0,31.371,4.853Z" transform="translate(16.969)" fill="#fff"/><path d="M30.588,7.795l.388-.971c.194.194.388.194.777.194s.582-.194.777-.582L30.2,1h1.359l1.553,4.077L34.471,1H35.83L33.694,6.63c-.388,1.165-.971,1.553-1.747,1.553A1.638,1.638,0,0,1,30.588,7.795Z" transform="translate(19.887 0.941)" fill="#fff"/></g><g transform="translate(37.662 76.683)"><path d="M19.4,40.6h1.359l1.165,3.689L23.089,40.6h.971l1.165,3.689L26.389,40.6h1.165l-1.747,5.436H24.642l-1.165-3.689-1.165,3.689H21.147Z" transform="translate(-19.4 -38.465)" fill="#fff"/><path d="M23.9,40.6h1.359l1.165,3.689L27.589,40.6h.971l1.165,3.689L30.889,40.6h1.165l-1.747,5.436H29.142l-1.165-3.689-1.165,3.689H25.647Z" transform="translate(-15.164 -38.465)" fill="#fff"/><path d="M28.4,40.6h1.165l1.165,3.689L31.894,40.6h.971l1.165,3.689L35.195,40.6H36.36l-1.747,5.436H33.448l-1.165-3.689-1.165,3.689H29.953Z" transform="translate(-10.928 -38.465)" fill="#fff"/><path d="M32.7,42.6h1.359v1.359H32.7Z" transform="translate(-6.88 -36.582)" fill="#fff"/><path d="M34,45.812l.971-.777a2.7,2.7,0,0,0,1.941.971,1.03,1.03,0,0,0,1.165-1.165h0c0-.777-.582-1.165-1.553-1.165h-.582l-.194-.777,1.941-2.135H34.582V39.6h4.659v.971L37.3,42.706c1.165.194,2.135.777,2.135,1.941h0a2.3,2.3,0,0,1-2.524,2.33A4.057,4.057,0,0,1,34,45.812Z" transform="translate(-5.656 -39.406)" fill="#fff"/><path d="M40.306,39.6h1.165l3.106,7.183H43.218l-.582-1.553h-3.3l-.777,1.747H37.2Zm1.941,4.465-1.165-2.912-1.165,2.912Z" transform="translate(-2.644 -39.406)" fill="#fff"/><path d="M41.6,40.694h1.165v.777a1.82,1.82,0,0,1,1.747-.971,1.893,1.893,0,0,1,1.941,2.135V46.13H45.289V43.024c0-.777-.388-1.359-1.165-1.359s-1.165.582-1.165,1.359V46.13H41.794V40.694Z" transform="translate(1.498 -38.559)" fill="#fff"/><path d="M45.088,47.1l.388-.971a3.28,3.28,0,0,0,1.941.582,1.544,1.544,0,0,0,1.747-1.747v-.388a2.142,2.142,0,0,1-1.941.971A2.447,2.447,0,0,1,44.7,43.024h0A2.447,2.447,0,0,1,47.224,40.5a2.142,2.142,0,0,1,1.941.971v-.777H50.33v4.271a2.687,2.687,0,0,1-2.912,2.912A10.944,10.944,0,0,1,45.088,47.1Zm4.077-4.077h0a1.553,1.553,0,0,0-3.106,0h0a1.553,1.553,0,0,0,3.106,0Z" transform="translate(4.416 -38.559)" fill="#fff"/><path d="M48.5,39.5h1.165v7.571H48.5Z" transform="translate(7.993 -39.5)" fill="#fff"/><path d="M49.8,43.412h0A2.821,2.821,0,0,1,52.518,40.5c1.747,0,2.524,1.359,2.524,2.912V43.8H51.159a1.478,1.478,0,0,0,1.553,1.359,2.582,2.582,0,0,0,1.553-.582l.777.582a2.781,2.781,0,0,1-2.135.971C50.965,46.13,49.8,44.965,49.8,43.412Zm4.077-.388a1.359,1.359,0,0,0-2.718,0Z" transform="translate(9.217 -38.559)" fill="#fff"/><path d="M52.9,45.259l.582-.777a3.131,3.131,0,0,0,1.747.582c.582,0,.777-.194.777-.582h0c0-.388-.582-.582-1.165-.777-.777-.194-1.747-.582-1.747-1.553h0c0-.971.777-1.553,1.941-1.553a3.746,3.746,0,0,1,1.941.582l-.582.971a1.682,1.682,0,0,0-1.359-.777c-.388,0-.777.194-.777.582h0c0,.388.582.582,1.165.777.777.194,1.747.582,1.747,1.553h0a1.785,1.785,0,0,1-1.941,1.747A3.389,3.389,0,0,1,52.9,45.259Z" transform="translate(12.135 -38.465)" fill="#fff"/><path d="M55.7,43.289h0A3.686,3.686,0,0,1,59.389,39.6a4.208,4.208,0,0,1,2.718.971l-.777.971a3.449,3.449,0,0,0-1.941-.777,2.407,2.407,0,0,0-2.33,2.524h0a2.345,2.345,0,0,0,2.524,2.524,2.71,2.71,0,0,0,1.747-.582V43.871H59.583V42.706h3.106v3.106a4.91,4.91,0,0,1-2.912,1.165C57.059,46.977,55.7,45.424,55.7,43.289Z" transform="translate(14.771 -39.406)" fill="#fff"/><path d="M59.9,40.694h1.165v1.165A2.111,2.111,0,0,1,63.006,40.5v1.359h0a1.893,1.893,0,0,0-1.941,2.135V46.13H59.9Z" transform="translate(18.725 -38.559)" fill="#fff"/><path d="M61.8,43.412h0A2.859,2.859,0,0,1,64.712,40.5a2.706,2.706,0,0,1,2.912,2.718h0a2.859,2.859,0,0,1-2.912,2.912A2.821,2.821,0,0,1,61.8,43.412Zm4.659,0h0a1.74,1.74,0,0,0-1.747-1.747,1.586,1.586,0,0,0-1.553,1.747h0a1.74,1.74,0,0,0,1.747,1.747A1.712,1.712,0,0,0,66.459,43.412Z" transform="translate(20.513 -38.559)" fill="#fff"/><path d="M65.4,43.994V40.5h1.165v3.106c0,.777.388,1.359,1.165,1.359s1.165-.582,1.165-1.359V40.5h1.165v5.436H68.894v-.777a1.82,1.82,0,0,1-1.747.971C66.177,46.13,65.4,45.353,65.4,43.994Z" transform="translate(23.902 -38.559)" fill="#fff"/><path d="M68.7,40.694h1.165v.777a2.039,2.039,0,0,1,1.747-.971,2.5,2.5,0,0,1,2.524,2.718h0a2.5,2.5,0,0,1-2.524,2.718c-.971,0-1.553-.388-1.747-.971v2.524H68.7Zm4.465,2.718h0a1.564,1.564,0,1,0-3.106,0h0a1.564,1.564,0,1,0,3.106,0Z" transform="translate(27.008 -38.559)" fill="#fff"/><path d="M72.2,42.6h1.359v1.359H72.2Z" transform="translate(30.303 -36.582)" fill="#fff"/><path d="M73.4,43.412h0A2.821,2.821,0,0,1,76.118,40.5a2.5,2.5,0,0,1,2.135.971l-.777.777a1.762,1.762,0,0,0-1.359-.582,1.586,1.586,0,0,0-1.553,1.747h0a1.586,1.586,0,0,0,1.553,1.747,1.762,1.762,0,0,0,1.359-.582l.777.777a2.781,2.781,0,0,1-2.135.971A2.951,2.951,0,0,1,73.4,43.412Z" transform="translate(31.433 -38.559)" fill="#fff"/><path d="M76.3,43.412h0A2.859,2.859,0,0,1,79.212,40.5a2.706,2.706,0,0,1,2.912,2.718h0a2.859,2.859,0,0,1-2.912,2.912A2.706,2.706,0,0,1,76.3,43.412Zm4.465,0h0a1.74,1.74,0,0,0-1.747-1.747,1.586,1.586,0,0,0-1.553,1.747h0a1.74,1.74,0,0,0,1.747,1.747A1.586,1.586,0,0,0,80.765,43.412Z" transform="translate(34.163 -38.559)" fill="#fff"/><path d="M79.994,40.694h1.165v.777c.388-.388.777-.971,1.553-.971a1.537,1.537,0,0,1,1.553.971,2.039,2.039,0,0,1,1.747-.971,1.893,1.893,0,0,1,1.941,2.135V46.13H86.789V43.024c0-.777-.388-1.359-1.165-1.359-.582,0-1.165.388-1.165,1.359V46.13H83.294V43.024c0-.777-.388-1.359-1.165-1.359s-1.165.582-1.165,1.359V46.13H79.8V40.694Z" transform="translate(37.457 -38.559)" fill="#fff"/></g></svg>
