<svg xmlns="http://www.w3.org/2000/svg" width="63.369" height="63.369" viewBox="0 0 63.369 63.369"><g transform="translate(-236.615 -3401.816)"><circle cx="31.684" cy="31.684" r="31.684" transform="translate(236.615 3401.816)" fill="#fff" opacity="0.27"/><path d="M155.435,167.745h-9.4c-.039-.013-.077-.039-.116-.052a4.64,4.64,0,0,1-3.923-4.62V145.495a4.621,4.621,0,0,1,4.633-4.633c5.872,0,11.732-.013,17.6,0a4.46,4.46,0,0,1,4.156,2.581,10.181,10.181,0,0,1,.49,1.458v18.791c-.013.039-.039.077-.052.116a4.532,4.532,0,0,1-2.594,3.459,10.562,10.562,0,0,1-1.407.465h-5.2c0-.039-.013-.09-.013-.129v-9.809a1.647,1.647,0,0,1,.026-.219h4.427v-4.491h-4.453v-1.549c0-.142,0-.284.013-.413a1.018,1.018,0,0,1,1.11-1.007h3.072c.09,0,.181-.013.271-.013v-4.453c-1.316,0-2.607-.013-3.9.013a2.919,2.919,0,0,0-.878.155,5.441,5.441,0,0,0-3.652,3.988,7.889,7.889,0,0,0-.206,2.336v.955h-3.265a1.342,1.342,0,0,0-.026.194v4.065c0,.181.065.219.232.219.774-.013,1.562,0,2.336,0h.723C155.435,161.008,155.435,164.376,155.435,167.745Z" transform="translate(112.942 3279.139)" fill="#fff"/></g></svg>
