<svg xmlns="http://www.w3.org/2000/svg" width="63.369" height="63.369" viewBox="0 0 63.369 63.369"><g transform="translate(-305.018 -3401.816)"><g transform="translate(323.034 3419.684)"><path d="M669.6,152.2c0-1.807.013-3.614,0-5.421a7.973,7.973,0,0,1,.723-3.627A7.792,7.792,0,0,1,677,138.507c1.1-.09,2.207-.039,3.317-.039,2.917,0,5.846-.052,8.763.013a7.751,7.751,0,0,1,7.124,4.491,7.057,7.057,0,0,1,.787,3.317c.013,2.439,0,4.866,0,7.3v4.233a7.976,7.976,0,0,1-6.9,7.95,19.59,19.59,0,0,1-2.465.077c-3.368,0-6.737.013-10.093,0a7.945,7.945,0,0,1-7.511-5.395,7.69,7.69,0,0,1-.426-2.478c0-1.91.013-3.846,0-5.782Zm2.117-.026c0,1.717-.013,3.42,0,5.137a10.463,10.463,0,0,0,.1,1.678,5.8,5.8,0,0,0,5.511,4.788c.71.013,1.42,0,2.13,0,3.214,0,6.427.013,9.641,0a5.78,5.78,0,0,0,5.769-5.627c.039-1.5.013-3.007.013-4.517,0-2.439.013-4.866,0-7.3a5.79,5.79,0,0,0-5.73-5.717c-1.536-.013-3.085,0-4.62,0H677.52a5.482,5.482,0,0,0-3.059.878,5.7,5.7,0,0,0-2.749,4.969C671.7,148.354,671.712,150.264,671.712,152.174Z" transform="translate(-669.595 -138.449)" fill="#fff"/><path d="M733.358,195.147a7.383,7.383,0,1,1-7.563-7.356A7.4,7.4,0,0,1,733.358,195.147Zm-12.648.026a5.266,5.266,0,1,0,5.175-5.279A5.255,5.255,0,0,0,720.71,195.173Z" transform="translate(-712.269 -181.422)" fill="#fff"/><path d="M834.045,171.4a1.052,1.052,0,0,1,.013,2.1A1.063,1.063,0,0,1,833,172.445,1.049,1.049,0,0,1,834.045,171.4Z" transform="translate(-811.911 -167.147)" fill="#fff"/></g><circle cx="31.684" cy="31.684" r="31.684" transform="translate(305.017 3401.816)" fill="#fff" opacity="0.27"/></g></svg>
