<svg xmlns="http://www.w3.org/2000/svg" width="41.256" height="26.554" viewBox="0 0 41.256 26.554"><path d="M0,238.189a3.976,3.976,0,0,0,.125-.437,5.923,5.923,0,0,1,5.68-4.868c3.183-.062,6.3,0,9.487,0H35.077a5.891,5.891,0,0,1,5.8,3.995,5.992,5.992,0,0,1,.374,2.06v14.418A5.944,5.944,0,0,1,35.2,259.41H6.117a5.894,5.894,0,0,1-5.992-5.118c0-.062-.062-.125-.062-.187C0,248.8,0,243.494,0,238.189Zm20.6,12.046c4.993-4.806,9.924-9.549,14.98-14.355H5.68Zm6.366-2.06c-1.748,1.685-3.433,3.308-5.118,4.931a1.521,1.521,0,0,1-2.434,0l-4.806-4.619a1.978,1.978,0,0,0-.374-.312c-2.871,2.746-5.68,5.492-8.551,8.239h29.9C32.643,253.667,29.834,250.921,26.963,248.175Zm-14.855-2.06c-3-2.871-5.929-5.68-8.863-8.488H3.121a12.276,12.276,0,0,0-.187,1.5v13.981a3.039,3.039,0,0,0,.062.749,5.8,5.8,0,0,0,.25.811C6.241,251.8,9.175,248.986,12.109,246.115Zm25.965-8.551c-3.058,2.934-5.992,5.742-8.925,8.613,3,2.871,5.929,5.68,8.988,8.613.062-.562.187-1,.187-1.436V239C38.26,238.5,38.136,238.064,38.073,237.564Z" transform="translate(0 -232.855)" fill="#fff"/></svg>
