<svg xmlns="http://www.w3.org/2000/svg" width="27.996" height="36.279" viewBox="0 0 27.996 36.279"><path d="M24.2,36.254c-1.186-1.373-2.434-2.684-3.558-4.057a69.07,69.07,0,0,1-8.114-11.3A17.662,17.662,0,0,1,10.4,15.345a12.526,12.526,0,0,1,1.56-8.176,14.041,14.041,0,0,1,26.089,4.369,11.982,11.982,0,0,1-1.186,7.49,47.967,47.967,0,0,1-5.8,9.113c-2,2.559-4.182,4.993-6.3,7.427A2.721,2.721,0,0,1,24.2,36.254Zm0-16.041A6.522,6.522,0,1,0,17.7,13.66,6.5,6.5,0,0,0,24.2,20.213Z" transform="translate(-10.239 0.025)" fill="#fff"/></svg>
