<svg xmlns="http://www.w3.org/2000/svg" width="34.812" height="34.999" viewBox="0 0 34.812 34.999"><g transform="translate(-794.668 -3314.944)"><path d="M5.262,149.024l.749-2.809c.562-2,1.123-3.995,1.623-6.054v-.25a17.1,17.1,0,0,1-2.06-5.992,18.65,18.65,0,0,1-.125-4.182,17.357,17.357,0,0,1,9.674-13.981,15.589,15.589,0,0,1,4.744-1.5,16.375,16.375,0,0,1,4.619-.125,17.3,17.3,0,0,1,13.419,8.988,16.5,16.5,0,0,1,1.872,5.43,15.14,15.14,0,0,1,.125,4.431,16.61,16.61,0,0,1-3.745,9.175A17.382,17.382,0,0,1,25.672,148.4a16.99,16.99,0,0,1-3.995.25,18.4,18.4,0,0,1-5.493-1.186c-.624-.25-1.186-.562-1.81-.811a.19.19,0,0,0-.25,0c-3,.749-5.929,1.56-8.925,2.372C5.387,148.962,5.325,148.962,5.262,149.024Zm4.182-4.119h.125c1.685-.437,3.308-.874,4.993-1.311a.68.68,0,0,1,.687.125,13.277,13.277,0,0,0,6.491,2.06,14.205,14.205,0,0,0,12.3-5.43,14.421,14.421,0,0,0,2.559-12.733,14.183,14.183,0,0,0-3.37-6.054,13.875,13.875,0,0,0-4.681-3.308,14.248,14.248,0,0,0-5.056-1.186,14.657,14.657,0,0,0-4.369.437,13.945,13.945,0,0,0-6.054,3.246,14.415,14.415,0,0,0-3.87,5.742,13.777,13.777,0,0,0-.749,6.741,13.22,13.22,0,0,0,.874,3.433,12.157,12.157,0,0,0,1.5,2.809.375.375,0,0,1,.062.25c-.374,1.436-.811,2.871-1.186,4.369A2.492,2.492,0,0,0,9.444,144.905Z" transform="translate(789.467 3200.918)" fill="#fff"/><path d="M22.3,129h.5c.187,0,.437.062.5.25a1.952,1.952,0,0,1,.312.624l1.311,3.183a.874.874,0,0,1,0,.687,5.243,5.243,0,0,1-1.123,1.5.611.611,0,0,0-.125.874,12.043,12.043,0,0,0,4.307,4.369c.562.312,1.123.562,1.685.811a.578.578,0,0,0,.749-.187c.437-.562.936-1.123,1.311-1.623.312-.374.5-.5.936-.312.562.25,1.061.5,1.623.749.624.312,1.248.624,1.935.936a.675.675,0,0,1,.437.687,4.188,4.188,0,0,1-.374,1.748,2.574,2.574,0,0,1-.624.811,6.042,6.042,0,0,1-1.935,1.123,4.645,4.645,0,0,1-1.623.125,5.981,5.981,0,0,1-2.309-.562,16.469,16.469,0,0,1-4.931-2.684,19.189,19.189,0,0,1-3.308-3.433c-.5-.687-1.061-1.436-1.5-2.185a7.233,7.233,0,0,1-1-2.5,4.9,4.9,0,0,1,1.311-4.369,1.545,1.545,0,0,1,1-.624Z" transform="translate(784.287 3195.29)" fill="#fff"/></g></svg>
